<svg width="656" height="414" viewBox="0 0 656 414" fill="none" xmlns="http://www.w3.org/2000/svg">
<g clip-path="url(#clip0_186_1441)">
<path d="M142.128 276.159C140.928 284.999 134.918 292.979 127.188 298.189C125.347 299.434 123.403 300.521 121.378 301.439C119.152 302.444 116.856 303.286 114.508 303.959C108.813 305.536 102.961 306.479 97.0583 306.769H97.0483C92.1183 307.089 87.1583 307.129 82.2483 307.159L58.0683 307.309C55.1783 307.329 52.2984 307.349 49.4083 307.369C40.7783 307.419 31.8683 307.419 23.8983 304.109C23.7792 304.065 23.6623 304.015 23.5483 303.959C15.7183 300.579 9.04833 293.149 9.23827 284.649C9.31468 281.655 10.1619 278.731 11.6983 276.159C12.7152 274.432 13.9374 272.833 15.3382 271.399C19.6782 266.899 25.6982 263.369 31.3382 260.529C37.6882 257.339 44.6083 253.499 49.2183 248.329C49.7783 247.699 50.2983 247.059 50.7783 246.399C52.1683 244.532 53.2147 242.433 53.8683 240.199C54.1554 239.189 54.3496 238.155 54.4483 237.109C55.0883 230.509 51.8783 224.439 47.7883 219.009C47.3883 218.469 46.9683 217.929 46.5383 217.389C45.6182 216.239 44.6683 215.109 43.7283 214.029C43.3283 213.569 42.9283 213.099 42.5183 212.629C41.3983 211.329 40.2683 209.999 39.1883 208.639C38.6883 207.999 38.1983 207.359 37.7183 206.709C35.7526 204.149 34.1445 201.333 32.9383 198.339C32.0816 196.149 31.6047 193.829 31.5283 191.479C31.3083 182.989 40.7983 174.439 47.9783 178.449C50.6983 178.189 53.4283 177.919 56.1483 177.639C56.7883 177.579 57.4183 177.509 58.0583 177.449C58.2183 177.429 58.3783 177.419 58.5383 177.399C62.8583 176.969 67.1583 176.539 71.4683 176.099H71.4783C72.4483 176.019 73.3983 175.919 74.3483 175.819H74.3583C81.2683 175.129 88.1717 174.439 95.0683 173.749C95.7083 173.689 96.3483 173.619 96.9883 173.559C98.4083 173.409 99.8183 173.269 101.238 173.129C105.218 172.739 109.898 172.589 112.488 175.649C115.308 178.989 113.848 184.269 111.058 187.639C108.268 190.999 104.398 193.379 101.778 196.859C99.6612 199.726 98.4305 203.15 98.2383 206.709C98.1983 207.339 98.1783 207.989 98.1983 208.639C98.2129 209.977 98.3366 211.311 98.5683 212.629C98.8493 214.249 99.2709 215.842 99.8283 217.389C100.807 220.152 102.164 222.767 103.858 225.159C109.738 233.399 118.448 239.079 126.178 245.609C126.488 245.869 126.788 246.129 127.088 246.399C127.818 247.019 128.528 247.669 129.238 248.329C135.738 254.399 141.298 261.789 142.218 270.509C142.248 270.799 142.278 271.099 142.288 271.399C142.401 272.987 142.347 274.582 142.128 276.159Z" fill="#F2F2F2"/>
<path d="M77.3514 125.942C79.0214 123.902 80.6814 121.842 82.3514 119.792C80.3362 114.786 77.5124 110.145 73.9927 106.054C73.5581 105.564 72.9914 105.211 72.3609 105.037C71.7303 104.862 71.0628 104.874 70.4385 105.07C69.8143 105.266 69.26 105.638 68.8424 106.142C68.4248 106.645 68.1617 107.259 68.0847 107.909C66.6255 118.67 58.7024 128.975 57.3214 140.193C56.9284 143.397 57.0941 146.645 57.8114 149.793V149.797C49.408 131.504 46.123 111.275 48.3061 91.2636C50.7044 70.1401 59.0199 50.1234 72.295 33.5184C77.7028 30.5668 82.0749 26.0273 84.8214 20.5125C85.1938 19.7523 85.5353 18.9699 85.835 18.1717C85.9948 17.7367 86.0477 17.2696 85.9893 16.8099C85.9308 16.3501 85.7627 15.9112 85.499 15.53C85.2354 15.1488 84.884 14.8366 84.4745 14.6196C84.065 14.4026 83.6093 14.2873 83.1459 14.2832C81.2089 14.2989 79.2731 14.1851 77.3514 13.9425C78.3776 12.6888 80.8844 9.60729 82.771 7.28564C83.1394 6.84342 83.4088 6.32748 83.5612 5.77249C83.7136 5.2175 83.7454 4.63632 83.6546 4.068C83.5637 3.49969 83.3522 2.95741 83.0344 2.47761C82.7165 1.99781 82.2996 1.59162 81.8118 1.28631L81.7714 1.26249C77.1614 -1.43751 70.8014 0.432488 67.4714 4.60249C64.1314 8.77249 63.5014 14.6225 64.6614 19.8325C65.802 24.2657 67.689 28.4725 70.2414 32.2725L70.2451 32.2785C69.9915 32.5961 69.7273 32.9052 69.4773 33.2258C62.5906 42.0798 57.0383 51.895 52.9974 62.3588C52.8371 62.7726 52.6948 63.193 52.5394 63.6086L52.5413 63.5825L53.1814 55.2425C55.3187 51.4335 56.5705 47.1919 56.8441 42.8328C57.1176 38.4736 56.4057 34.1089 54.7613 30.0625C52.0495 23.5208 46.9624 18.0133 42.4888 12.3575C37.1256 5.57705 26.1432 8.57022 25.1981 17.1635C25.1889 17.2465 25.18 17.3295 25.1713 17.4125C28.9224 19.5231 32.2082 22.3701 34.8313 25.7825C31.5913 26.2825 28.3413 26.7925 25.1013 27.2925C25.3377 29.6841 25.7555 32.0543 26.3513 34.3825C28.1333 41.0939 31.3269 47.3478 35.719 52.7263C40.111 58.1049 45.6002 62.4842 51.82 65.5718C48.4572 75.0787 46.3543 84.9852 45.5649 95.0384C45.1106 100.966 45.1368 106.921 45.6431 112.844C45.6298 112.774 45.6252 112.703 45.6114 112.632C44.3313 106.044 40.8168 100.1 35.6614 95.8024C27.6121 89.1903 16.0698 86.9693 7.6773 81.3409C6.9238 80.8444 6.04465 80.5724 5.14242 80.5567C4.24018 80.541 3.35205 80.7821 2.58172 81.2521C1.81138 81.722 1.19059 82.4014 0.79177 83.2109C0.392949 84.0203 0.232559 84.9265 0.329307 85.8237C0.401387 86.4448 0.485409 87.0644 0.581382 87.6824C5.81679 89.8124 10.3903 93.2986 13.8314 97.7824C10.5914 98.2824 7.34137 98.7924 4.10137 99.2924C4.03137 99.3024 3.97139 99.3125 3.90139 99.3225C6.00548 104.346 8.9586 108.97 12.6314 112.992C17.1686 117.861 22.6523 121.751 28.7465 124.425C34.8406 127.099 41.4166 128.5 48.0714 128.542C48.0758 128.542 48.0802 128.542 48.0846 128.542C50.49 139.002 54.3353 149.077 59.5106 158.479C62.2049 163.372 65.2542 168.062 68.6339 172.509L69.1714 174.032C69.2914 173.922 69.4214 173.812 69.5414 173.702L69.5574 173.688C72.5467 177.53 75.7821 181.174 79.2433 184.597C80.3366 185.675 82.0215 183.99 80.928 182.912C77.4874 179.511 74.2748 175.886 71.3109 172.063C77.3803 166.079 81.7793 158.612 84.0715 150.402C81.489 150.565 78.8964 150.41 76.3515 149.942C78.4215 147.402 80.4915 144.842 82.5615 142.302C82.6076 142.255 82.651 142.205 82.6915 142.152C83.7415 140.852 84.8015 139.562 85.8515 138.262C85.8615 137.762 85.8615 137.272 85.8515 136.772C85.7851 133.286 85.329 129.818 84.4915 126.432C82.1006 126.54 79.7052 126.375 77.3514 125.942ZM46.1214 118.752C46.1314 118.362 46.1314 117.972 46.1214 117.572C46.12 117.462 46.105 117.351 46.1023 117.24C46.188 117.931 46.2712 118.622 46.3697 119.312L46.3614 119.292L46.1214 118.752Z" fill="#F2F2F2"/>
<path d="M225.203 240.492L213.622 291.447L206.222 299.553H200.883L222.887 206.907L223.975 222.646V222.657L225.203 240.492Z" fill="#3F3D56"/>
<path d="M280.937 292.566L212.997 292.136L206.967 292.096L202.667 292.066L197.657 292.036H197.617C196.89 292.038 196.193 292.325 195.677 292.836L187.217 301.296C187.03 301.481 186.877 301.698 186.767 301.936C186.714 302.004 186.67 302.078 186.637 302.156C186.454 302.582 186.378 303.046 186.417 303.507C186.455 303.969 186.606 304.414 186.857 304.803C187.108 305.192 187.451 305.514 187.856 305.739C188.26 305.965 188.714 306.088 189.177 306.096H277.187C277.715 306.094 278.232 305.943 278.678 305.66C279.124 305.377 279.481 304.974 279.707 304.496L280.397 302.996L281.817 299.946L283.427 296.506C283.599 296.14 283.688 295.741 283.687 295.336C283.683 294.606 283.393 293.907 282.878 293.389C282.364 292.871 281.667 292.576 280.937 292.566Z" fill="#3F3D56"/>
<path opacity="0.17" d="M280.397 302.994L279.702 304.499C279.476 304.975 279.12 305.378 278.676 305.661C278.231 305.943 277.716 306.095 277.189 306.098H189.175C188.713 306.089 188.259 305.967 187.854 305.742C187.45 305.516 187.107 305.195 186.857 304.806C186.606 304.416 186.455 303.971 186.417 303.51C186.379 303.049 186.455 302.585 186.639 302.16C186.67 302.081 186.713 302.007 186.767 301.94L280.397 302.994Z" fill="black"/>
<path opacity="0.17" d="M223.975 222.646V222.657L205.133 299.553H200.883L222.887 206.907L223.975 222.646Z" fill="black"/>
<path d="M247.097 236.736L220.427 33.8263C220.329 33.0658 219.934 32.3752 219.327 31.9063L200.967 8.9263L199.317 7.65631C198.706 7.19355 197.937 6.9889 197.177 7.08631L194.417 7.4563C193.656 7.55444 192.965 7.95093 192.496 8.55855C192.027 9.16617 191.819 9.93514 191.917 10.6963L219.557 220.936V220.946L221.247 233.806L223.257 249.076V249.096L226.377 272.856C226.427 273.263 226.564 273.655 226.78 274.004C226.996 274.352 227.285 274.65 227.627 274.876C227.963 275.108 228.345 275.265 228.747 275.337C229.148 275.41 229.561 275.396 229.957 275.296L231.707 274.856C232.377 274.684 232.965 274.28 233.367 273.716L234.147 272.606L234.507 272.086L246.587 238.786C247.011 238.192 247.193 237.46 247.097 236.736Z" fill="#3F3D56"/>
<path opacity="0.17" d="M200.963 8.92721L234.51 272.091L234.146 272.606L233.368 273.713C232.967 274.277 232.379 274.681 231.708 274.853L229.955 275.294C229.559 275.392 229.146 275.406 228.743 275.334C228.341 275.262 227.959 275.105 227.621 274.875C227.283 274.645 226.998 274.346 226.783 273.998C226.569 273.651 226.43 273.261 226.376 272.856L191.921 10.6995C191.821 9.93821 192.028 9.1685 192.496 8.55949C192.963 7.95048 193.653 7.55202 194.414 7.4517L197.182 7.08802C197.557 7.0373 197.939 7.06181 198.305 7.16012C198.67 7.25843 199.013 7.42858 199.313 7.66065L200.963 8.92721Z" fill="black"/>
<path d="M201.951 16.453L219.754 41.864L240.914 202.865L229.442 225.624L201.951 16.453Z" fill="#1D4E89"/>
<path d="M264.395 240.172L257.844 247.378C257.541 247.633 257.17 247.796 256.776 247.847C256.383 247.898 255.983 247.835 255.624 247.666C254.538 247.281 253.571 246.618 252.82 245.744C248.139 240.43 242.883 235.652 237.149 231.496C236.207 230.831 235.455 229.932 234.969 228.887C234.772 228.55 234.672 228.166 234.681 227.776C234.69 227.386 234.807 227.007 235.019 226.68C235.084 222.738 237.304 220.295 241.62 219.419C242.376 218.631 244.086 218.931 245.618 220.126C251.92 225.042 257.842 230.427 263.335 236.234C264.684 237.66 265.14 239.354 264.395 240.172Z" fill="#1D4E89"/>
<path d="M247.558 224.663L242.044 230.727C241.854 230.937 241.395 230.829 241.019 230.488C240.643 230.146 240.493 229.699 240.683 229.49L246.197 223.425C246.387 223.216 246.846 223.323 247.222 223.665C247.598 224.007 247.749 224.454 247.558 224.663Z" fill="white"/>
<path d="M253.003 229.613L247.489 235.678C247.299 235.887 246.84 235.78 246.464 235.438C246.088 235.096 245.938 234.65 246.128 234.44L251.642 228.376C251.832 228.166 252.291 228.274 252.667 228.616C253.043 228.957 253.193 229.404 253.003 229.613Z" fill="white"/>
<path d="M258.448 234.564L252.934 240.628C252.744 240.838 252.285 240.73 251.909 240.389C251.533 240.047 251.383 239.6 251.573 239.391L257.087 233.326C257.277 233.117 257.736 233.224 258.112 233.566C258.488 233.908 258.638 234.354 258.448 234.564Z" fill="white"/>
<path d="M655.67 306.879C655.671 307.036 655.64 307.191 655.58 307.335C655.521 307.48 655.433 307.611 655.323 307.722C655.212 307.832 655.081 307.92 654.936 307.98C654.791 308.039 654.636 308.07 654.48 308.069H1.19C0.874395 308.069 0.57171 307.944 0.348541 307.721C0.125373 307.498 0 307.195 0 306.879C0 306.564 0.125373 306.261 0.348541 306.038C0.57171 305.815 0.874395 305.689 1.19 305.689H654.48C654.636 305.689 654.791 305.719 654.936 305.779C655.081 305.839 655.212 305.926 655.323 306.037C655.433 306.147 655.521 306.279 655.58 306.423C655.64 306.568 655.671 306.723 655.67 306.879Z" fill="#CCCCCC"/>
<path d="M127.118 248.329H129.288V246.399H96.9883V208.639H98.1983C98.1783 207.989 98.1983 207.339 98.2383 206.709H96.9883V173.559C96.3483 173.619 95.7083 173.689 95.0683 173.749V206.709H58.0583V177.449C57.4184 177.509 56.7884 177.579 56.1483 177.639V206.709H37.7183C38.1983 207.359 38.6883 207.999 39.1883 208.639H56.1483V246.399H50.7783C50.2983 247.059 49.7783 247.699 49.2183 248.329H56.1483V278.449H32.7783C33.0583 279.099 33.3583 279.739 33.6783 280.369H56.1483V305.689H58.0583V280.369H95.0683V305.689H96.9883V280.369H129.288V278.449H96.9884C96.9911 270.46 100.167 262.799 105.817 257.151C111.467 251.502 119.129 248.329 127.118 248.329ZM95.0683 278.449H58.0583V248.329H95.0683V278.449ZM58.0583 246.399V245.639C58.0604 235.825 61.9606 226.414 68.9012 219.475C75.8417 212.536 85.2542 208.639 95.0683 208.639V246.399H58.0583Z" fill="#E6E6E6"/>
<path d="M154.423 250.333C143.406 234.979 122.613 227.044 107.98 232.611C93.3475 238.177 90.4161 255.137 101.433 270.491C112.45 285.845 144.879 309.996 159.511 304.43C174.144 298.863 165.439 265.687 154.423 250.333ZM154.491 297.558C152.689 300.199 148.27 300.321 144.62 297.831C140.97 295.342 139.471 291.183 141.273 288.542C143.074 285.901 147.493 285.779 151.143 288.268C154.793 290.758 156.292 294.917 154.491 297.558Z" fill="#3F3D56"/>
<path d="M141.986 265.351C140.614 266.46 139.242 267.569 137.87 268.678C136.186 270.231 134.193 271.41 132.02 272.136C129.038 272.825 125.92 272.64 123.041 271.602C118.843 270.246 115.164 267.631 112.503 264.113L115.468 264.774C113.895 262.953 112.615 260.897 111.676 258.681C110.981 256.624 111.369 254.537 113.246 253.973C115.395 253.329 118.855 254.778 120.659 253.736C123.779 251.934 118.65 245.224 121.493 243.153C123.15 241.947 126.464 243.141 129.227 244.324C132.664 245.633 135.921 247.373 138.921 249.5C143.829 253.291 146.547 259.265 144.542 262.723C143.857 263.747 142.991 264.638 141.986 265.351Z" fill="#1D4E89"/>
<path d="M140.975 276.865C138.576 277.193 135.8 275.349 133.485 273.647L132.895 272.876C132.413 271.399 132.21 269.845 132.297 268.294C132.352 267.576 132.649 266.897 133.14 266.369C133.631 265.842 134.287 265.497 135 265.391C136.407 265.205 138.286 265.812 139.215 264.998C141.012 263.424 136.844 259.084 138.75 257.611C139.82 256.784 142.092 257.844 143.072 259.265C143.873 260.59 144.242 262.131 144.13 263.675C144.161 265.942 144.193 268.209 144.225 270.476C144.326 271.815 144.191 273.161 143.825 274.452C143.624 275.081 143.25 275.641 142.746 276.067C142.242 276.494 141.629 276.77 140.975 276.865Z" fill="#2F2E41"/>
<path d="M141.577 284.419C138.251 283.437 133.179 280.01 128.86 276.983L127.574 275.864C126.227 274.337 125.086 272.64 124.179 270.817C123.68 269.452 124.322 268.655 126.53 269.314C128.485 269.898 131.563 271.556 132.474 271.229C134.234 270.597 125.755 263.834 127.729 263.365C128.837 263.103 132.741 265.445 134.956 267.448C136.586 268.894 137.933 270.632 138.927 272.571C140.221 274.923 141.516 277.276 142.81 279.628C143.591 280.803 144.136 282.119 144.413 283.503C144.44 284.504 143.595 285.015 141.577 284.419Z" fill="#FF6584"/>
<path d="M93.8418 293.43L155.582 301.64C155.919 301.685 156.226 301.857 156.439 302.121C156.652 302.385 156.756 302.721 156.729 303.06C156.702 303.398 156.547 303.714 156.294 303.941C156.042 304.168 155.712 304.289 155.372 304.28L95.1544 302.689L93.8418 293.43Z" fill="#3F3D56"/>
<path d="M76.1411 300.527C77.4816 298.557 79.0502 296.753 80.8141 295.151C81.7145 294.34 82.6631 293.587 83.6201 292.864C83.9505 292.602 84.2932 292.347 84.6263 292.094C85.4201 291.491 86.2139 290.887 87.0173 290.281C87.6904 289.764 88.3732 289.244 89.049 288.737C90.0388 287.983 91.1536 287.193 92.3903 287.367C92.9556 287.498 93.4847 287.753 93.9396 288.113C94.3944 288.473 94.7636 288.93 95.0206 289.45C95.5698 290.529 95.9679 291.678 96.2037 292.866C96.8741 295.587 97.5349 298.31 98.2053 301.031L99.1998 302.097C97.7805 303.499 96.1271 304.641 94.3142 305.474C93.5511 305.783 92.7332 305.935 91.9098 305.921C91.0864 305.906 90.2744 305.725 89.5229 305.388C89.1947 305.23 88.8843 305.036 88.5969 304.812C87.343 303.821 86.5712 302.264 85.4679 301.073C85.2353 300.828 84.9879 300.597 84.7271 300.381C83.9654 299.738 83.0711 299.27 82.1078 299.012C81.1446 298.753 80.1363 298.711 79.1547 298.887C78.0171 299.142 76.9734 299.71 76.1411 300.527Z" fill="#CCCCCC"/>
<path d="M76.1411 300.527C77.4816 298.557 79.0502 296.753 80.8141 295.151C81.7145 294.34 82.6631 293.587 83.6201 292.864C83.9505 292.602 84.2932 292.347 84.6263 292.094C85.4201 291.491 86.2139 290.887 87.0173 290.281C87.2775 290.717 87.5148 291.166 87.7281 291.626C89.7267 295.921 89.8722 300.718 89.5229 305.388C89.1947 305.23 88.8843 305.037 88.5969 304.812C87.343 303.821 86.5712 302.264 85.4679 301.073C85.2353 300.828 84.9879 300.597 84.7271 300.381C83.9654 299.738 83.0711 299.27 82.1078 299.012C81.1446 298.753 80.1363 298.711 79.1547 298.887C78.0171 299.142 76.9734 299.71 76.1411 300.527Z" fill="#1D4E89"/>
<path d="M568.504 115.168C566.202 110.216 569.856 104.687 571.16 99.3555C573.594 89.4072 566.737 78.6365 557.444 75.1893C548.15 71.7423 537.47 74.6233 529.487 80.6553C521.661 86.5685 516.159 89.3542 510.768 97.7092C508.961 100.511 507.046 109.21 506.704 112.565C506.362 115.921 508.098 119.766 511.263 120.502C509.985 123.215 512.2 126.342 515.055 125.791C521.113 124.621 532.24 127.837 532.24 127.837C542.614 128.431 552.988 129.025 563.362 129.619C566.021 129.771 568.779 129.909 571.167 128.441C571.828 128.054 572.397 127.529 572.836 126.901C573.274 126.274 573.572 125.558 573.708 124.805C574.315 120.875 570.092 118.583 568.504 115.168Z" fill="#2F2E41"/>
<path d="M562.139 293.166C543.708 310.536 524.134 309.488 503.533 291.607C492.167 291.304 483.132 283.085 483.393 273.284C483.653 263.482 493.113 255.755 504.479 256.057L563.085 257.616C574.451 257.918 583.486 266.138 583.225 275.939C582.965 285.74 573.505 293.468 562.139 293.166Z" fill="#2F2E41"/>
<path d="M576.338 158.499L574.068 173.609L570.468 197.549L569.858 206.419L565.378 271.429C565.378 271.429 530.758 268.589 521.558 271.429C512.358 274.279 489.998 262.549 489.998 262.549C498.028 254.649 495.858 225.619 495.858 225.619L495.768 153.709L516.078 146.879L522.768 133.709H546.768L552.768 147.709L563.658 152.689L568.618 154.969L576.338 158.499Z" fill="#3F3D56"/>
<path d="M480.718 395.97L469.096 397.868L456.241 353.945L473.394 351.143L480.718 395.97Z" fill="#FFB6B6"/>
<path d="M476.1 304.381C497.768 309.709 513.768 303.709 526.947 304.487C534.438 291.847 558.35 275.791 545.303 269.033C538.037 265.269 464.175 256.593 454.478 266.606C429.545 292.355 460.502 373.672 460.502 373.672L477.72 373.45L483.221 365.598L478.79 357.04L482.982 350.044L478.185 342.837L476.1 304.381Z" fill="#2F2E41"/>
<path d="M587.819 395.97L599.44 397.868L612.295 353.945L595.143 351.143L587.819 395.97Z" fill="#FFB6B6"/>
<path d="M592.437 282.381C580.445 299.967 561.316 302.844 541.59 304.487C534.099 291.847 510.187 275.791 523.234 269.033C530.5 265.269 604.362 234.593 614.058 244.606C638.992 270.355 608.035 373.672 608.035 373.672L590.817 373.45L585.316 365.598L589.747 357.04L585.555 350.044L590.352 342.837L592.437 282.381Z" fill="#2F2E41"/>
<path d="M588.837 379.651L606.07 383.18L604.124 390.448L617.268 405.903C617.917 406.666 618.306 407.617 618.376 408.617C618.447 409.616 618.196 410.612 617.661 411.459C617.125 412.306 616.333 412.96 615.4 413.325C614.466 413.69 613.441 413.747 612.473 413.487L592.279 408.08L590.723 399.96L587.439 406.784L579.825 404.746L588.837 379.651Z" fill="#2F2E41"/>
<path d="M488.711 404.746L481.097 406.784L477.814 399.96L476.258 408.08L456.064 413.487C455.096 413.747 454.07 413.69 453.137 413.325C452.203 412.96 451.411 412.306 450.876 411.459C450.34 410.612 450.089 409.616 450.16 408.617C450.231 407.617 450.619 406.666 451.268 405.903L464.413 390.448L462.467 383.18L479.7 379.651L488.711 404.746Z" fill="#2F2E41"/>
<path d="M535.76 126.955C546.967 126.955 556.052 117.87 556.052 106.663C556.052 95.4558 546.967 86.3707 535.76 86.3707C524.553 86.3707 515.467 95.4558 515.467 106.663C515.467 117.87 524.553 126.955 535.76 126.955Z" fill="#FFB6B6"/>
<path d="M524.166 100.298C518.805 100.306 513.573 98.6557 509.187 95.5721L509.041 95.4696C509.041 90.2348 511.12 85.2144 514.822 81.5128C518.523 77.8112 523.544 75.7317 528.779 75.7317H536.836C539.41 75.7346 541.96 76.2454 544.337 77.2347C546.714 78.2241 548.873 79.6726 550.69 81.4973C552.507 83.3221 553.946 85.4872 554.924 87.8688C555.903 90.2505 556.403 92.8018 556.395 95.3767C556.378 96.5521 555.903 97.6745 555.071 98.5049C554.239 99.3354 553.116 99.8083 551.941 99.8229L524.629 100.294C524.475 100.296 524.32 100.298 524.166 100.298Z" fill="#2F2E41"/>
<path d="M571.21 326.619H510.109C508.472 326.617 506.902 325.965 505.744 324.807C504.586 323.65 503.935 322.08 503.933 320.442V264.538C503.935 262.901 504.586 261.331 505.744 260.173C506.902 259.015 508.472 258.364 510.109 258.362H571.21C572.847 258.364 574.417 259.015 575.575 260.173C576.733 261.331 577.384 262.901 577.386 264.538V320.442C577.384 322.08 576.733 323.65 575.575 324.807C574.417 325.965 572.847 326.617 571.21 326.619Z" fill="#E6E6E6"/>
<path d="M566.915 321.471H514.404C512.95 321.469 511.556 320.891 510.528 319.863C509.5 318.835 508.922 317.441 508.92 315.987V268.993C508.922 267.54 509.5 266.146 510.528 265.118C511.556 264.089 512.95 263.511 514.404 263.51H566.915C568.369 263.511 569.763 264.089 570.791 265.118C571.819 266.146 572.397 267.54 572.399 268.993V315.987C572.397 317.441 571.819 318.835 570.791 319.863C569.763 320.891 568.369 321.469 566.915 321.471Z" fill="white"/>
<path d="M561.677 277.191H519.643C519.279 277.191 518.93 277.047 518.673 276.79C518.416 276.533 518.272 276.184 518.272 275.82C518.272 275.457 518.416 275.108 518.673 274.851C518.93 274.594 519.279 274.449 519.643 274.449H561.677C562.04 274.449 562.389 274.594 562.646 274.851C562.903 275.108 563.047 275.457 563.047 275.82C563.047 276.184 562.903 276.533 562.646 276.79C562.389 277.047 562.04 277.191 561.677 277.191Z" fill="#1D4E89"/>
<path d="M561.677 282.608H519.643C519.279 282.608 518.93 282.464 518.673 282.207C518.416 281.95 518.272 281.601 518.272 281.237C518.272 280.874 518.416 280.525 518.673 280.268C518.93 280.011 519.279 279.866 519.643 279.866H561.677C562.04 279.866 562.389 280.011 562.646 280.268C562.903 280.525 563.048 280.874 563.048 281.237C563.048 281.601 562.903 281.95 562.646 282.207C562.389 282.464 562.04 282.608 561.677 282.608Z" fill="#1D4E89"/>
<path d="M537.863 288.025H519.643C519.279 288.025 518.93 287.881 518.673 287.624C518.416 287.366 518.272 287.018 518.272 286.654C518.272 286.291 518.416 285.942 518.673 285.685C518.93 285.428 519.279 285.283 519.643 285.283H537.863C538.227 285.283 538.576 285.428 538.833 285.685C539.09 285.942 539.234 286.291 539.234 286.654C539.234 287.018 539.09 287.366 538.833 287.624C538.576 287.881 538.227 288.025 537.863 288.025Z" fill="#1D4E89"/>
<path d="M561.677 299.37H519.643C519.279 299.37 518.93 299.226 518.673 298.969C518.416 298.712 518.272 298.363 518.272 297.999C518.272 297.636 518.416 297.287 518.673 297.03C518.93 296.773 519.279 296.629 519.643 296.629H561.677C562.04 296.629 562.389 296.773 562.646 297.03C562.903 297.287 563.047 297.636 563.047 297.999C563.047 298.363 562.903 298.712 562.646 298.969C562.389 299.226 562.04 299.37 561.677 299.37Z" fill="#E4E4E4"/>
<path d="M561.677 304.787H519.643C519.279 304.787 518.93 304.643 518.673 304.386C518.416 304.129 518.272 303.78 518.272 303.416C518.272 303.053 518.416 302.704 518.673 302.447C518.93 302.19 519.279 302.045 519.643 302.045H561.677C562.04 302.045 562.389 302.19 562.646 302.447C562.903 302.704 563.048 303.053 563.048 303.416C563.048 303.78 562.903 304.129 562.646 304.386C562.389 304.643 562.04 304.787 561.677 304.787Z" fill="#E4E4E4"/>
<path d="M537.863 310.204H519.643C519.279 310.204 518.93 310.06 518.673 309.803C518.416 309.546 518.272 309.197 518.272 308.833C518.272 308.47 518.416 308.121 518.673 307.864C518.93 307.607 519.279 307.462 519.643 307.462H537.863C538.227 307.462 538.576 307.607 538.833 307.864C539.09 308.121 539.234 308.47 539.234 308.833C539.234 309.197 539.09 309.546 538.833 309.803C538.576 310.06 538.227 310.204 537.863 310.204Z" fill="#E4E4E4"/>
<path d="M580.768 199.709L562.387 199.86L561.037 232.575L546.102 250.859C544.286 251.165 542.589 251.967 541.199 253.177C539.81 254.386 538.781 255.957 538.228 257.714C537.675 259.471 537.619 261.347 538.065 263.135C538.511 264.922 539.442 266.552 540.756 267.843C542.07 269.135 543.716 270.038 545.511 270.453C547.306 270.867 549.181 270.778 550.928 270.194C552.675 269.611 554.228 268.555 555.413 267.145C556.598 265.735 557.371 264.024 557.645 262.202L578.218 233.682L580.768 199.709Z" fill="#FFB6B6"/>
<path d="M486.647 201.194L467.805 192.386L447.23 217.858L424.343 223.647C422.702 222.81 420.861 222.443 419.024 222.587C417.188 222.731 415.426 223.38 413.935 224.462C412.444 225.544 411.281 227.017 410.574 228.718C409.868 230.42 409.645 232.283 409.931 234.103C410.217 235.923 411.001 237.629 412.196 239.031C413.39 240.434 414.949 241.479 416.7 242.051C418.452 242.623 420.327 242.7 422.119 242.274C423.911 241.847 425.551 240.933 426.856 239.633L460.371 228.983L486.647 201.194Z" fill="#FFB6B6"/>
<path d="M545.913 125.389L552.938 116.624C553.697 115.856 554.191 114.866 554.348 113.798C554.385 112.727 553.375 111.58 552.357 111.916C551.412 112.227 545.967 98.5853 544.972 98.5881C543.941 98.591 543.605 97.2162 543.592 96.1849C543.542 92.2774 546.718 96.4733 547.768 92.7092C548.818 88.9451 552.912 92.1815 556.439 90.5004C559.967 88.8193 564.76 89.5829 566.941 92.8256C568.558 95.2299 568.498 98.3538 568.284 101.243C567.786 107.948 566.777 114.606 565.266 121.158C564.895 122.767 564.342 124.566 562.859 125.292C562.043 125.616 561.163 125.747 560.288 125.677L549.471 125.623" fill="#2F2E41"/>
<path d="M562.768 87.7092C568.291 87.7092 572.768 83.2321 572.768 77.7092C572.768 72.1864 568.291 67.7092 562.768 67.7092C557.245 67.7092 552.768 72.1864 552.768 77.7092C552.768 83.2321 557.245 87.7092 562.768 87.7092Z" fill="#2F2E41"/>
<path d="M585.258 199.899C584.178 201.779 581.878 202.529 579.778 203.109C576.938 203.899 576.108 204.699 573.268 205.489C572.138 205.809 570.998 206.129 569.858 206.419C567.987 206.923 566.087 207.314 564.168 207.589C562.558 207.819 560.658 207.819 559.608 206.569C558.912 205.496 558.631 204.205 558.818 202.939C559.228 187.579 559.642 172.219 560.058 156.859L560.928 157.159C561.32 156.901 561.727 156.667 562.148 156.459C564.15 155.439 566.372 154.928 568.618 154.969C569.904 154.98 571.181 155.178 572.408 155.559C574.314 156.164 576.066 157.177 577.54 158.528C579.015 159.878 580.178 161.534 580.948 163.379C581.946 166.165 582.42 169.111 582.348 172.069C582.358 172.519 582.358 172.969 582.368 173.419C582.428 177.259 580.478 181.099 580.538 184.939C580.493 186.02 580.642 187.101 580.978 188.129C581.378 189.149 582.158 189.999 582.458 191.059C582.758 192.109 582.268 193.549 581.178 193.629C581.948 193.547 582.726 193.68 583.425 194.012C584.125 194.345 584.719 194.864 585.141 195.513C585.563 196.162 585.798 196.916 585.819 197.69C585.839 198.464 585.645 199.228 585.258 199.899Z" fill="#3F3D56"/>
<path d="M495.852 153.796C497.852 153.916 499.8 154.477 501.558 155.437C503.317 156.397 504.841 157.734 506.023 159.351C507.206 160.968 508.016 162.827 508.397 164.793C508.778 166.76 508.721 168.787 508.228 170.729C507.393 174.024 505.368 176.871 503.384 179.633L496.663 188.987C495.981 189.826 495.456 190.781 495.114 191.806C494.831 192.867 494.943 194.017 494.556 195.044C494.169 196.071 492.921 196.933 491.995 196.343C492.662 196.736 493.208 197.306 493.571 197.99C493.935 198.673 494.103 199.444 494.056 200.217C494.01 200.99 493.75 201.735 493.307 202.369C492.863 203.004 492.253 203.504 491.543 203.814C489.549 204.684 487.258 203.907 485.226 203.13L476.972 199.971C474.037 198.923 471.176 197.677 468.411 196.239C466.982 195.455 465.457 194.326 465.355 192.699C465.276 191.433 466.347 190.46 466.884 189.311C473.606 174.919 483.491 163.467 495.768 153.709L495.852 153.796Z" fill="#3F3D56"/>
<path d="M511.721 342.26C519.557 342.26 525.91 335.908 525.91 328.071C525.91 320.235 519.557 313.882 511.721 313.882C503.885 313.882 497.532 320.235 497.532 328.071C497.532 335.908 503.885 342.26 511.721 342.26Z" fill="white"/>
<path d="M511.721 342.434C508.88 342.434 506.104 341.591 503.742 340.013C501.38 338.435 499.539 336.192 498.452 333.568C497.365 330.943 497.081 328.056 497.635 325.27C498.189 322.484 499.557 319.924 501.565 317.916C503.574 315.907 506.133 314.539 508.919 313.985C511.705 313.431 514.593 313.715 517.217 314.802C519.842 315.89 522.085 317.73 523.663 320.092C525.241 322.454 526.083 325.231 526.083 328.071C526.079 331.879 524.564 335.53 521.872 338.222C519.179 340.915 515.529 342.429 511.721 342.434Z" fill="#1D4E89"/>
<path d="M510.659 333.742C510.628 333.742 510.598 333.741 510.568 333.74C510.301 333.727 510.039 333.656 509.802 333.533C509.565 333.409 509.357 333.236 509.193 333.025L506.821 329.977C506.672 329.784 506.561 329.564 506.496 329.329C506.432 329.094 506.414 328.848 506.444 328.606C506.474 328.364 506.552 328.131 506.673 327.919C506.793 327.707 506.954 327.521 507.147 327.371L507.232 327.305C507.424 327.155 507.645 327.044 507.88 326.98C508.115 326.915 508.36 326.897 508.602 326.928C508.844 326.958 509.078 327.035 509.29 327.156C509.502 327.277 509.688 327.438 509.838 327.63C509.958 327.784 510.109 327.91 510.282 328C510.455 328.09 510.645 328.141 510.84 328.151C511.035 328.16 511.229 328.128 511.41 328.055C511.591 327.982 511.754 327.872 511.888 327.73L516.703 322.647C517.042 322.29 517.508 322.082 518.001 322.069C518.493 322.056 518.97 322.238 519.328 322.576L519.407 322.651C519.584 322.819 519.726 323.02 519.825 323.243C519.925 323.465 519.979 323.705 519.986 323.949C519.992 324.193 519.951 324.435 519.864 324.663C519.776 324.891 519.645 325.099 519.477 325.276L512.006 333.162C511.833 333.345 511.624 333.491 511.392 333.591C511.16 333.691 510.911 333.742 510.659 333.742Z" fill="white"/>
<path d="M410.551 249.739L375.218 206.475C374.011 204.994 373.441 203.094 373.632 201.192C373.824 199.291 374.763 197.543 376.241 196.333L385.671 188.632C387.152 187.425 389.052 186.855 390.953 187.047C392.855 187.238 394.602 188.177 395.813 189.656L431.146 232.919C432.353 234.4 432.923 236.3 432.732 238.202C432.54 240.103 431.601 241.851 430.123 243.061L420.694 250.762C419.212 251.969 417.312 252.539 415.411 252.348C413.509 252.156 411.762 251.217 410.551 249.739Z" fill="#3F3D56"/>
<path d="M429.378 233.749L419.918 222.169L414.988 216.139L394.038 190.489C393.716 190.094 393.319 189.766 392.871 189.525C392.422 189.283 391.93 189.133 391.422 189.082C390.915 189.03 390.403 189.08 389.915 189.227C389.427 189.374 388.973 189.616 388.578 189.939L379.148 197.639C378.753 197.961 378.426 198.358 378.184 198.807C377.943 199.256 377.792 199.748 377.741 200.255C377.69 200.762 377.739 201.275 377.886 201.763C378.033 202.251 378.275 202.705 378.598 203.099L378.618 203.129L396.308 224.789L413.928 246.369C414.582 247.165 415.525 247.67 416.55 247.773C417.575 247.876 418.599 247.569 419.398 246.919L428.818 239.219C429.615 238.566 430.122 237.625 430.227 236.6C430.332 235.575 430.027 234.55 429.378 233.749Z" fill="#1D4E89"/>
<path d="M401.768 213.709C401.77 215.851 401.279 217.965 400.332 219.887C399.385 221.808 398.008 223.486 396.308 224.789L378.618 203.129C380.645 201.371 383.135 200.234 385.79 199.852C388.446 199.47 391.155 199.86 393.596 200.975C396.036 202.09 398.104 203.883 399.553 206.141C401.002 208.399 401.771 211.026 401.768 213.709Z" fill="#3F3D56"/>
<path d="M404.381 206.511C404.859 208.233 403.622 210.297 400.896 212.326C400.351 212.732 399.576 212.924 399.122 213.511C398.167 214.837 396.864 215.876 395.357 216.511C393.851 217.147 392.198 217.355 390.581 217.113C390.39 216.992 390.201 216.866 390.013 216.737C390.048 216.728 390.083 216.718 390.118 216.709C393.346 215.85 396.435 214.535 399.29 212.802C399.748 212.512 400.458 212.402 400.589 211.912C401.638 207.979 403.991 207.695 403.885 206.649C403.73 205.12 401.454 204.145 398.346 203.841C398.038 203.811 397.723 203.788 397.402 203.772C397.274 203.591 397.143 203.414 397.006 203.241C397.484 203.256 397.947 203.285 398.396 203.328C401.777 203.659 403.902 204.79 404.381 206.511Z" fill="white"/>
<path d="M389.702 209.078C391.611 209.078 393.158 207.531 393.158 205.622C393.158 203.714 391.611 202.166 389.702 202.166C387.793 202.166 386.246 203.714 386.246 205.622C386.246 207.531 387.793 209.078 389.702 209.078Z" fill="white"/>
<path d="M407.88 228.476C408.381 228.476 408.788 228.069 408.788 227.568C408.788 227.067 408.381 226.66 407.88 226.66C407.379 226.66 406.972 227.067 406.972 227.568C406.972 228.069 407.379 228.476 407.88 228.476Z" fill="white"/>
<path d="M422.88 232.476C423.381 232.476 423.788 232.069 423.788 231.568C423.788 231.067 423.381 230.66 422.88 230.66C422.379 230.66 421.972 231.067 421.972 231.568C421.972 232.069 422.379 232.476 422.88 232.476Z" fill="white"/>
<path d="M389.88 195.476C390.381 195.476 390.788 195.069 390.788 194.568C390.788 194.067 390.381 193.66 389.88 193.66C389.379 193.66 388.972 194.067 388.972 194.568C388.972 195.069 389.379 195.476 389.88 195.476Z" fill="white"/>
<path d="M415.88 238.476C416.381 238.476 416.788 238.069 416.788 237.568C416.788 237.067 416.381 236.66 415.88 236.66C415.379 236.66 414.972 237.067 414.972 237.568C414.972 238.069 415.379 238.476 415.88 238.476Z" fill="white"/>
<path d="M394.049 209.724C394.246 209.724 394.405 209.565 394.405 209.369C394.405 209.173 394.246 209.014 394.049 209.014C393.853 209.014 393.694 209.173 393.694 209.369C393.694 209.565 393.853 209.724 394.049 209.724Z" fill="#F0F0F0"/>
<path d="M400.049 216.724C400.246 216.724 400.405 216.565 400.405 216.369C400.405 216.173 400.246 216.014 400.049 216.014C399.853 216.014 399.694 216.173 399.694 216.369C399.694 216.565 399.853 216.724 400.049 216.724Z" fill="#F0F0F0"/>
<path d="M382.049 204.724C382.246 204.724 382.405 204.565 382.405 204.369C382.405 204.173 382.246 204.014 382.049 204.014C381.853 204.014 381.694 204.173 381.694 204.369C381.694 204.565 381.853 204.724 382.049 204.724Z" fill="#F0F0F0"/>
<path d="M419.918 222.169C419.55 222.643 419.08 223.028 418.542 223.296C418.004 223.563 417.413 223.706 416.813 223.713C416.213 223.72 415.619 223.593 415.074 223.339C414.53 223.085 414.05 222.712 413.67 222.247C413.29 221.782 413.02 221.238 412.879 220.654C412.739 220.07 412.732 219.463 412.858 218.876C412.985 218.289 413.242 217.738 413.611 217.264C413.98 216.79 414.45 216.406 414.988 216.139L419.918 222.169Z" fill="#FF6584"/>
<path d="M21.7812 381.781H10.1875V374.469H21.7812C23.5729 374.469 25.0312 374.177 26.1562 373.594C27.2812 372.99 28.1042 372.156 28.625 371.094C29.1458 370.031 29.4062 368.833 29.4062 367.5C29.4062 366.146 29.1458 364.885 28.625 363.719C28.1042 362.552 27.2812 361.615 26.1562 360.906C25.0312 360.198 23.5729 359.844 21.7812 359.844H13.4375V398H4.0625V352.5H21.7812C25.3438 352.5 28.3958 353.146 30.9375 354.438C33.5 355.708 35.4583 357.469 36.8125 359.719C38.1667 361.969 38.8438 364.542 38.8438 367.438C38.8438 370.375 38.1667 372.917 36.8125 375.062C35.4583 377.208 33.5 378.865 30.9375 380.031C28.3958 381.198 25.3438 381.781 21.7812 381.781ZM53.75 371.562V398H44.75V364.188H53.2188L53.75 371.562ZM63.9375 363.969L63.7812 372.312C63.3438 372.25 62.8125 372.198 62.1875 372.156C61.5833 372.094 61.0312 372.062 60.5312 372.062C59.2604 372.062 58.1562 372.229 57.2188 372.562C56.3021 372.875 55.5312 373.344 54.9062 373.969C54.3021 374.594 53.8438 375.354 53.5312 376.25C53.2396 377.146 53.0729 378.167 53.0312 379.312L51.2188 378.75C51.2188 376.562 51.4375 374.552 51.875 372.719C52.3125 370.865 52.9479 369.25 53.7812 367.875C54.6354 366.5 55.6771 365.438 56.9062 364.688C58.1354 363.938 59.5417 363.562 61.125 363.562C61.625 363.562 62.1354 363.604 62.6562 363.688C63.1771 363.75 63.6042 363.844 63.9375 363.969ZM77.6875 364.188V398H68.6562V364.188H77.6875ZM68.0938 355.375C68.0938 354.062 68.5521 352.979 69.4688 352.125C70.3854 351.271 71.6146 350.844 73.1562 350.844C74.6771 350.844 75.8958 351.271 76.8125 352.125C77.75 352.979 78.2188 354.062 78.2188 355.375C78.2188 356.688 77.75 357.771 76.8125 358.625C75.8958 359.479 74.6771 359.906 73.1562 359.906C71.6146 359.906 70.3854 359.479 69.4688 358.625C68.5521 357.771 68.0938 356.688 68.0938 355.375ZM93.9375 371.406V398H84.9375V364.188H93.375L93.9375 371.406ZM92.625 379.906H90.1875C90.1875 377.406 90.5104 375.156 91.1562 373.156C91.8021 371.135 92.7083 369.417 93.875 368C95.0417 366.562 96.4271 365.469 98.0312 364.719C99.6562 363.948 101.469 363.562 103.469 363.562C105.052 363.562 106.5 363.792 107.812 364.25C109.125 364.708 110.25 365.438 111.188 366.438C112.146 367.438 112.875 368.76 113.375 370.406C113.896 372.052 114.156 374.062 114.156 376.438V398H105.094V376.406C105.094 374.906 104.885 373.74 104.469 372.906C104.052 372.073 103.438 371.49 102.625 371.156C101.833 370.802 100.854 370.625 99.6875 370.625C98.4792 370.625 97.4271 370.865 96.5312 371.344C95.6562 371.823 94.9271 372.49 94.3438 373.344C93.7812 374.177 93.3542 375.156 93.0625 376.281C92.7708 377.406 92.625 378.615 92.625 379.906ZM137.562 364.188V370.562H117.875V364.188H137.562ZM122.75 355.844H131.75V387.812C131.75 388.792 131.875 389.542 132.125 390.062C132.396 390.583 132.792 390.948 133.312 391.156C133.833 391.344 134.49 391.438 135.281 391.438C135.844 391.438 136.344 391.417 136.781 391.375C137.24 391.312 137.625 391.25 137.938 391.188L137.969 397.812C137.198 398.062 136.365 398.26 135.469 398.406C134.573 398.552 133.583 398.625 132.5 398.625C130.521 398.625 128.792 398.302 127.312 397.656C125.854 396.99 124.729 395.927 123.938 394.469C123.146 393.01 122.75 391.094 122.75 388.719V355.844Z" fill="white"/>
<path d="M173.594 371.031V378.344H149.844V371.031H173.594ZM152.625 352.5V398H143.25V352.5H152.625ZM180.281 352.5V398H170.938V352.5H180.281ZM207.875 389.906V364.188H216.875V398H208.406L207.875 389.906ZM208.875 382.969L211.531 382.906C211.531 385.156 211.271 387.25 210.75 389.188C210.229 391.104 209.448 392.771 208.406 394.188C207.365 395.583 206.052 396.677 204.469 397.469C202.885 398.24 201.021 398.625 198.875 398.625C197.229 398.625 195.708 398.396 194.312 397.938C192.938 397.458 191.75 396.719 190.75 395.719C189.771 394.698 189 393.396 188.438 391.812C187.896 390.208 187.625 388.281 187.625 386.031V364.188H196.625V386.094C196.625 387.094 196.74 387.938 196.969 388.625C197.219 389.312 197.562 389.875 198 390.312C198.438 390.75 198.948 391.062 199.531 391.25C200.135 391.438 200.802 391.531 201.531 391.531C203.385 391.531 204.844 391.156 205.906 390.406C206.99 389.656 207.75 388.635 208.188 387.344C208.646 386.031 208.875 384.573 208.875 382.969ZM223.75 350H232.75V390.25L231.844 398H223.75V350ZM254.156 380.75V381.406C254.156 383.927 253.885 386.24 253.344 388.344C252.823 390.448 252.01 392.271 250.906 393.812C249.802 395.333 248.427 396.521 246.781 397.375C245.156 398.208 243.24 398.625 241.031 398.625C238.969 398.625 237.177 398.208 235.656 397.375C234.156 396.542 232.896 395.365 231.875 393.844C230.854 392.323 230.031 390.542 229.406 388.5C228.781 386.458 228.312 384.229 228 381.812V380.375C228.312 377.958 228.781 375.729 229.406 373.688C230.031 371.646 230.854 369.865 231.875 368.344C232.896 366.823 234.156 365.646 235.656 364.812C237.156 363.979 238.927 363.562 240.969 363.562C243.198 363.562 245.135 363.99 246.781 364.844C248.448 365.677 249.823 366.865 250.906 368.406C252.01 369.927 252.823 371.74 253.344 373.844C253.885 375.927 254.156 378.229 254.156 380.75ZM245.156 381.406V380.75C245.156 379.375 245.052 378.083 244.844 376.875C244.656 375.646 244.323 374.573 243.844 373.656C243.365 372.719 242.708 371.979 241.875 371.438C241.062 370.896 240.01 370.625 238.719 370.625C237.49 370.625 236.448 370.833 235.594 371.25C234.74 371.667 234.031 372.25 233.469 373C232.927 373.75 232.521 374.646 232.25 375.688C231.979 376.708 231.812 377.833 231.75 379.062V383.156C231.812 384.802 232.083 386.26 232.562 387.531C233.062 388.781 233.812 389.771 234.812 390.5C235.833 391.208 237.156 391.562 238.781 391.562C240.052 391.562 241.104 391.312 241.938 390.812C242.771 390.312 243.417 389.604 243.875 388.688C244.354 387.771 244.688 386.698 244.875 385.469C245.062 384.219 245.156 382.865 245.156 381.406Z" fill="#1D4E89"/>
</g>
<defs>
<clipPath id="clip0_186_1441">
<rect width="655.67" height="413.648" fill="white"/>
</clipPath>
</defs>
</svg>
